<?xml version="1.0" encoding="utf-8"?>
<!-- Generator: Adobe Illustrator 22.1.0, SVG Export Plug-In . SVG Version: 6.00 Build 0)  -->
<svg version="1.1" id="Layer_1" xmlns="http://www.w3.org/2000/svg" xmlns:xlink="http://www.w3.org/1999/xlink" x="0px" y="0px"
	 viewBox="0 0 1366 768" style="enable-background:new 0 0 1366 768;" xml:space="preserve">
<g>
	<g>
		<path d="M489.7,402.2c-24.7,0-39.1-12-43.4-36c-2.2-12.7-3.3-27.8-3.3-45.2c0-3.5,0.1-7.3,0.2-11.3V307c0-8.6-0.6-16.4-1.8-23.5
			c-1.2-6.8-4.4-12.8-9.6-17.9c-5.2-5.1-11.5-9.7-18.9-13.8c-7.4-4.1-15.4-8-23.8-11.9c-9.3-4.2-18.2-8.7-26.7-13.5
			c-8.5-4.8-16-10.9-22.3-18.5c-6.3-7.6-10.3-15.9-11.8-24.9c-1.1-5.7-1.6-11.3-1.6-16.8c0-9.7,2-20.3,6.1-31.8
			c4.1-11.5,11.5-22.3,22.1-32.3c10.6-10,23-18.2,37.1-24.6c14.1-6.3,28.8-11,44.2-14c15.3-3,30-4.5,44.1-4.5
			c9.4,0,18.8,0.3,28.1,0.8c9.3,0.5,18.6,0.8,27.9,0.8c22,0,39.1-2.3,51.4-6.8c12.3-4.5,19.5-11.8,21.7-21.9
			c0.5-2.3,1.9-3.5,4.1-3.5c2.5,0,4.8,1.6,7.2,4.9c2.3,3.3,4.2,6.9,5.7,10.9c1.5,4,2.5,7.1,2.9,9.1c0.4,2,0.6,4,0.6,5.9
			c0,18-16.6,27-49.7,27c-16.2,0-33.6-0.8-52.2-2.5c-19.4-1.8-38.4-2.7-57.1-2.7c-41.5,0-71.8,8.6-91,25.8
			c-15.1,13.4-22.7,30.8-22.7,52.4c0,6,0.6,12.3,1.8,19c1.1,6.7,3.8,13.1,8.1,19.3c4.3,6.2,9.3,11.2,15.1,15
			c5.8,3.8,12,7.6,18.5,11.3c20.6,11,35.3,22.4,44,34.2c2.7-44.1,6.8-93.4,12.1-148.1c1.4-12.5,11.3-18.8,29.9-18.8
			c5,0,8.6,0.5,10.5,1.6c2,1.1,3.2,3,3.8,5.7c0.1,0.5,0.2,1.2,0.2,2c0,2.2-0.3,5.5-0.8,10c-7.4,80.1-11.9,140.5-13.7,181.3
			c-0.4,8.6-0.6,16.7-0.6,24.3c0,18.4,1.2,34.2,3.5,47.5c1.5,8.2,3.6,13.9,6.3,17.2c2.7,3.3,5.2,5.6,7.4,7c2.9,1.6,4.5,3.5,4.9,5.5
			v1c0,1.9-1,3.4-3.1,4.6c-2,1.2-4.6,1.9-7.7,2.4C494.4,402,491.8,402.2,489.7,402.2z"/>
		<path d="M615.8,355.1c-15.3,0-27.3-4.8-36.2-14.3c-8.3-9.3-13.8-21.5-16.6-36.8c-2.2-12.4-3.3-24.8-3.3-37.2
			c0-3.1,0.2-9.3,0.7-18.6c0.5-9.3,1.6-21.3,3.4-36.2c1-7.5,3.9-13.4,8.7-17.6c4.8-4.2,13.5-6.3,25.9-6.3c4.1,0,6.5,1.7,7.2,5.1
			c0.1,0.5,0.2,1.3,0.2,2.3c0,1.6-0.2,3.9-0.6,6.8c-1.2,8.2-2.7,26-4.5,53.4c-0.5,8-0.8,15.5-0.8,22.3c0,10.9,0.7,20.1,2,27.6
			c3.3,18.7,10,28,20.3,28c13.1,0,23.9-7.2,32.3-21.5c6.3-10.6,10.9-23,13.9-37c2-10.1,3.5-19.2,4.5-27.2c0.5-2.9,2.2-4.3,4.9-4.3
			c2.5,0,4.3,0.9,5.5,2.7c0.8,1.1,1.4,2.1,1.6,3.1c0.1,0.4,0.2,1,0.2,1.6c0,4.2-1.6,13.9-4.9,29.1C669.4,330,648,355.1,615.8,355.1z
			 M587.1,176.3c-6.5,0-10.5-3.6-11.9-10.8c-0.5-3.3-0.8-6.1-0.8-8.6c0-4.5,0.8-7.8,2.5-10c4.4-6.3,11-9.4,20-9.4
			c5.7,0,9,2.3,9.8,6.8c0.4,1.8,0.6,3.8,0.6,5.9c0,2.2-0.2,4.6-0.6,7.2C605.3,170,598.7,176.3,587.1,176.3z"/>
		<path d="M808.9,362.7c-11.5,0-20.8-2.9-28.1-8.6c-7.3-5.7-13-13-17.1-21.7c-4.1-8.7-6.9-17.5-8.4-26.2c-2.3-13-3.5-25.6-3.5-38.1
			c-3.7,10-6.7,17.5-9,22.5c-14.3,32.1-31.5,48.1-51.6,48.1c-13.2,0-21.5-9.1-24.8-27.2c-1.1-5.9-1.6-11.9-1.6-18
			c0-7,0.9-15.8,2.8-26.6c1.8-10.8,5.5-22.3,10.9-34.7c5.5-12.3,11.9-22.5,19.3-30.4c7.4-7.9,15.1-11.9,23-11.9c8.5,0,16,3,22.7,9
			c5.3,4.6,9.5,10.5,12.5,17.6c5.6-15,17.9-22.5,37-22.5c5.2,0,8.2,2.1,9,6.3c0.1,0.7,0.2,1.5,0.2,2.5c0,2.7-0.5,6.1-1.4,10
			c-2.6,10.5-4.9,25.9-7,46.2c-1.1,9.8-1.6,18.8-1.6,27c0,8.6,0.6,16.2,1.8,22.7c1.8,10.2,4.6,18.1,8.6,23.7c4,5.6,8.2,8.4,12.7,8.4
			c10,0,19.5-8,28.6-23.9c5.2-9,8.9-17,11-23.9c4.2-13,7.4-28.1,9.6-45.4c0.5-2.9,2.2-4.3,4.9-4.3c4.1,0,6.5,1.9,7.2,5.7
			c0.1,0.4,0.2,1,0.2,1.6c0,4.2-1.6,13.9-4.9,29.1c-1.5,7.1-4,15.8-7.4,26.2c-7.6,22-17.9,38.1-30.9,48.3
			C826.8,359.9,818.5,362.7,808.9,362.7z M710.1,304.8c3.3,0,7.5-4.4,12.8-13.1c5.2-8.7,10.3-18.6,15.1-29.7
			c4.8-11,8.4-20.5,10.5-28.4c-3.5-12.7-7.6-19-12.3-19c-7.2,0-14.4,11.9-21.5,35.8c-3.1,9.8-5.5,19.4-7,28.6
			c-1,5.7-1.4,10.6-1.4,14.7c0,2.7,0.2,5,0.6,7C707.6,303.4,708.6,304.8,710.1,304.8z"/>
	</g>
	<g>
		<path d="M277,690.1c-19.6,0-37.2-4.4-52.8-13.3c-17.6-10.1-28-24.3-31.3-42.8c-0.4-2.2-0.6-4.3-0.6-6.3c0-5.6,1.5-11.5,4.6-17.7
			c3.1-6.2,9.4-11.6,18.9-16.3c7.5-3.7,17.2-5.9,29.1-6.5c-1.4-11.9-2-24.9-2-39.1c0-7.6,0.2-15.5,0.6-23.7
			c0.8-21.4,2.9-54.4,6.3-99c0.5-7.8,0.9-13.4,1.1-16.9c0.2-3.5,0.9-9.9,1.9-19.3c1.4-12.4,11.4-18.6,30.1-18.6
			c5,0,8.6,0.5,10.6,1.6c2,1.1,3.3,2.9,3.7,5.5v0.8c0,4.1-1.3,21.9-3.9,53.4c-1.5,17.5-2.9,35-4.1,52.6c10-3.1,20.7-4.7,32.1-4.7
			c9.3-5.7,17.4-12.8,24.3-21.1c13.5-15.8,20.3-34.1,20.3-54.8c0-6-0.5-12.2-1.6-18.6c-1.9-11-5.8-19.5-11.7-25.4
			c-5.9-5.9-12.4-9.9-19.5-12.1c-7.2-2.2-14.2-3.3-21.2-3.3c-29.5,0-56.1,9.3-80,28c-23.3,18.4-40.6,40.3-52,65.7
			c-8.2,18.7-12.3,36.8-12.3,54.4c0,6.4,0.5,12.8,1.6,19c4.1,23.1,15.5,34.6,34.4,34.6c4.5,0,8.7-0.7,12.5-2.2
			c0.8-0.4,1.6-0.6,2.5-0.6c3.3,0,5.9,1.6,7.8,4.9c0.4,0.8,0.7,1.7,1,2.7c0.1,0.5,0.2,1,0.2,1.4c0,2.6-1.3,4.4-3.9,5.5
			c-6.5,2.5-13.4,3.7-20.7,3.7c-14.3,0-27.6-4.6-39.7-13.7c-15.1-11.3-24.3-26.5-27.6-45.4c-1.2-6.8-1.8-13.6-1.8-20.3
			c0-13.9,2.6-27.4,7.8-40.5c8.6-21.8,22.1-41.3,40.4-58.4c18.3-17.1,39.3-30.7,63-40.8c23.7-10.1,47.2-15.1,70.7-15.1
			c18.5,0,36.1,4.2,52.6,12.7c19.4,10.1,30.8,25,34.4,44.8c1,5.9,1.4,11.6,1.4,17.2c0,9-1.3,17.7-3.9,26
			c-7.4,22.6-21.4,41.5-42.1,56.5c34.2,8.7,54.8,32.9,61.8,72.4c1.2,7.2,1.8,14.2,1.8,20.9c0,27.7-11.8,53.3-35.4,76.9
			C362.8,678.3,326.4,690.1,277,690.1z M264.7,666.8c18.3,0,34.1-2.9,47.6-8.7c13.4-5.8,24.6-13.4,33.5-22.7
			c8.9-9.3,15.7-19.6,20.5-30.8c4.8-11.2,7.6-21.7,8.6-31.5c0.3-3.1,0.4-6.3,0.4-9.4c0-6.7-0.6-13.5-1.8-20.5
			c-4.9-27.7-17-42.4-36.2-44.2c-4.6,1.8-11.6,3.8-20.9,5.9c-10.4,2.6-19.9,3.9-28.6,3.9l-0.8,17.6c-0.4,8.2-0.6,16-0.6,23.3
			c0,15,0.8,28.6,2.5,40.9c9,7.1,14.2,14.4,15.5,21.9c0.3,1.6,0.4,3.2,0.4,4.7c0,5-1.9,9.5-5.7,13.4c-3.8,3.9-9.3,5.8-16.6,5.8
			c-19,0-30.8-11.4-35.4-34.2c-23.2,1-34.8,8.9-34.8,23.9c0,2,0.2,4.2,0.6,6.3c1.5,8.7,5.4,15.6,11.8,20.6c6.3,5,13,8.5,19.8,10.5
			C251.2,665.8,258,666.8,264.7,666.8z"/>
		<path d="M584.7,629.5c-11.5,0-20.8-2.9-28.1-8.6c-7.3-5.7-13-13-17.1-21.7c-4.1-8.7-6.9-17.5-8.4-26.2c-2.3-13-3.5-25.6-3.5-38.1
			c-3.7,10-6.7,17.5-9,22.5c-14.3,32.1-31.5,48.1-51.6,48.1c-13.2,0-21.5-9.1-24.8-27.2c-1.1-5.9-1.6-11.9-1.6-18
			c0-7,0.9-15.8,2.8-26.6c1.8-10.8,5.5-22.3,10.9-34.7c5.5-12.3,11.9-22.5,19.3-30.4c7.4-7.9,15.1-11.9,23-11.9c8.5,0,16,3,22.7,9
			c5.3,4.6,9.5,10.5,12.5,17.6c5.6-15,17.9-22.5,37-22.5c5.2,0,8.2,2.1,9,6.3c0.1,0.7,0.2,1.5,0.2,2.5c0,2.7-0.5,6.1-1.4,10
			c-2.6,10.5-4.9,25.9-7,46.2c-1.1,9.8-1.6,18.8-1.6,27c0,8.6,0.6,16.2,1.8,22.7c1.8,10.2,4.6,18.1,8.6,23.7c4,5.6,8.2,8.4,12.7,8.4
			c10,0,19.5-8,28.6-23.9c5.2-9,8.9-17,11-23.9c4.2-13,7.4-28.1,9.6-45.4c0.5-2.9,2.2-4.3,4.9-4.3c4.1,0,6.5,1.9,7.2,5.7
			c0.1,0.4,0.2,1,0.2,1.6c0,4.2-1.6,13.9-4.9,29.1c-1.5,7.1-4,15.8-7.4,26.2c-7.6,22-17.9,38.1-30.9,48.3
			C602.6,626.8,594.2,629.5,584.7,629.5z M485.9,571.6c3.3,0,7.5-4.4,12.8-13.1c5.2-8.7,10.3-18.6,15.1-29.7
			c4.8-11,8.4-20.5,10.5-28.4c-3.5-12.7-7.6-19-12.3-19c-7.2,0-14.4,11.9-21.5,35.8c-3.1,9.8-5.5,19.4-7,28.6
			c-1,5.7-1.4,10.6-1.4,14.7c0,2.7,0.2,5,0.6,7C483.4,570.3,484.4,571.6,485.9,571.6z"/>
		<path d="M775.8,637.1c-26.7,0-42.8-15.5-48.3-46.4c-0.5-3.5-0.8-8.7-0.8-15.3c0-9.8,0.6-23,1.8-39.5c1.2-16,1.8-28.3,1.8-37
			c0-5.3-0.2-9.3-0.6-11.9c-1.5-7.9-4.6-11.9-9.2-11.9c-4.5,0-9,4-13.6,12c-4.6,8-8.7,17.6-12.3,28.7c-3.6,11.2-6.3,22.2-8.1,32.9
			c-1.1,7-1.6,12.8-1.6,17.6c0,2.6,0.1,4.8,0.4,6.8c0.7,4.2,2,9.5,3.9,15.9c1.9,6.3,3.1,10.9,3.5,13.8c0.1,1,0.2,1.9,0.2,2.9
			c0,1.5-0.3,2.9-0.8,4.1c-1.8,3.8-10.4,5.7-26,5.7c-10.1,0-17.3-12.3-21.5-36.8c-2.2-12.3-3.5-25.3-4.1-39.1
			c-0.3-8.3-0.4-16.1-0.4-23.3c0-4.9,0.1-11.2,0.3-18.9c0.2-7.7,0.6-13.9,1.1-18.5c1.9-16,13.5-23.9,34.8-23.9c3.7,0,5.9,2,6.5,5.9
			c0.1,0.8,0.2,2,0.2,3.5c0,1.8-0.1,4-0.4,6.8c-1.6,13-3,29.5-4.1,49.7c11.6-49.1,30.6-73.7,56.9-73.7c6.7,0,12.2,1.4,16.7,4.2
			c4.4,2.8,7.9,6.5,10.5,11.3c2.6,4.7,4.4,9.9,5.3,15.7c1.1,6.3,1.6,14,1.6,23.3c0,12.7-1,28.1-3.1,46.2
			c-1.2,11.2-1.8,20.7-1.8,28.4c0,5.7,0.3,10.6,1,14.5c2.9,16.5,9.5,24.8,20,24.8c8,0,16.6-7.4,25.8-22.1c3.7-6,6.9-11.9,9.6-17.6
			c6-13.1,10-24.4,12.1-34c2-10.1,3.5-19.2,4.3-27.2c0.4-2.9,2.4-4.3,5.9-4.3c3.5,0,5.7,2,6.3,5.9v0.6c0,1.5-0.3,4.2-0.8,8
			c-3,21.4-8.5,41.5-16.6,60.1c-8.6,19.9-19.3,34.6-32.1,44C793,634.4,784.8,637.1,775.8,637.1z"/>
		<path d="M897.1,739.4c-11.2,0-19.9-2.7-26.3-8.1c-6.3-5.4-10.2-11.9-11.6-19.5c-0.7-3.8-1-7.6-1-11.3c0-16.4,6.3-32.3,18.8-47.7
			c12.1-15.1,26.8-27.3,44-36.4c1.4-19.1,2-35.3,2-48.5c0-7.1-0.2-13.3-0.6-18.6l-1-12.7c-11.9,51.8-28.7,77.7-50.5,77.7
			c-10.2,0-18.1-2.9-23.5-8.8c-5.5-5.9-9-13.4-10.6-22.5c-1.6-9.1-2.5-18.5-2.5-28.2c0-4.6,0.2-9.3,0.6-13.9
			c1-12.4,3.3-32.3,7.2-59.5c1.6-12,13-18,34-18c4.6,0,7.4,2.5,8.4,7.4c0.3,1.6,0.4,3.8,0.4,6.3c0,7.9-1.4,20-4.3,36.4
			c-3.1,17.5-5,30.3-5.7,38.5c-0.4,3.5-0.6,6.8-0.6,9.8c0,4.2,0.3,8.1,1,11.5c1,5.5,3.3,8.2,7.2,8.2c7.1,0,14.6-14.7,22.5-44.2
			c5.9-22.4,10.1-43.1,12.7-62.2c1-7.1,2-11.9,3.3-14.5c2.2-4.8,11-7.2,26.4-7.2c6.4,0,10,2.4,10.8,7.2c0.7,4.2,1.7,13.1,3.1,26.6
			c3.1,34.2,4.7,65.1,4.7,92.7c0,6.7-0.1,13.2-0.2,19.4c17-10.2,30-21.8,38.9-34.8c9.4-13.4,15.3-30,17.6-49.9
			c0.4-2.9,2.4-4.3,5.9-4.3c3.4,0,5.5,1.9,6.1,5.7c0,0.5-0.3,3-1,7.4c-2.7,19.1-8.7,35.3-18,48.7c-11.5,16.8-28.1,31-49.9,42.8
			c-1.4,25-4.4,46.5-9.2,64.7C945.7,719.4,926,739.4,897.1,739.4z M888.3,720.2c6.4,0,11.8-4.8,16.2-14.5
			c7.1-16.1,12.3-40.5,15.5-73.2c-10.6,7.2-20,16.3-28,27.2c-10.5,14.3-15.8,28.4-15.8,42.1c0,3.3,0.3,6.5,0.8,9.6
			C878.1,717.2,881.9,720.2,888.3,720.2z"/>
		<path d="M1162.7,622c-11.6,0-21-2.6-28.2-7.8c-7.2-5.2-12.8-11.7-16.7-19.5c-3.9-7.8-6.5-15.8-7.9-23.8c-1.9-11-2.9-22.2-2.9-33.3
			v-4.1c-2.7,13.8-6.3,26.8-10.7,39.1c-4.4,12.3-10,22.3-16.6,30.2c-6.6,7.8-14.5,11.8-23.6,11.8c-19.1,0-30.6-10.8-34.4-32.5
			c-1.6-9.5-2.5-19.8-2.5-30.9c0-10.5,0.8-21.6,2.3-33.3c0.8-6.1,2.7-18.1,5.7-36c2-12.1,11.9-18.2,29.5-18.2c4.8,0,8,0.8,9.6,2.5
			c1.6,1.6,2.7,3.8,3.3,6.3c0.1,1.2,0.2,2.7,0.2,4.5c0,7-1.4,18.8-4.3,35.4c-4,22.6-5.9,39.5-5.9,50.5c0,3.7,0.2,6.8,0.6,9.2
			c1.1,6.4,3.5,9.6,7.4,9.6c5.3,0,10.1-5.7,14.4-17.2c4.3-11.5,9.3-31.4,15-59.7c5.5-29.9,19.6-44.8,42.6-44.8
			c7.2,0,11.3,2.3,12.1,6.8c0.1,0.7,0.2,1.4,0.2,2c0,0.8-0.1,1.6-0.2,2.5c-1.6,13.1-3.1,30.1-4.3,51.1c-0.4,7.6-0.6,14.7-0.6,21.1
			c0,11.5,0.7,21.1,2,29.1c3.3,18.7,10,28,20.3,28c13.1,0,23.9-7.2,32.3-21.5c9.3-15.7,15.5-37.1,18.6-64.2c0.4-2.9,2-4.3,4.7-4.3
			c2.5,0,4.3,0.9,5.5,2.7c0.8,1.1,1.4,2.1,1.6,3.1c0.1,0.4,0.2,1,0.2,1.6c0,4.2-1.6,13.9-4.9,29.1
			C1216.3,596.9,1194.9,622,1162.7,622z"/>
	</g>
	<g>
		<path d="M988.8,418.1c-1.6,0-3-0.7-4.2-2.2c-0.5-0.7-0.8-1.4-0.9-2.2c-0.1-0.3-0.1-0.6-0.1-0.9c0-1.3,0.5-2.2,1.6-2.8
			c10.5-6.5,17.4-14.9,20.8-25.1c1.9-5.8,2.8-12.3,2.8-19.3c0-4.3-0.3-8.7-1-13.4c-7.3,4.3-15.8,6.4-25.3,6.4
			c-8,0-15.8-1.6-23.2-4.8c-7.4-3.2-13.8-7.8-19-13.6c-5.3-5.8-8.6-12.7-10-20.5c-0.6-3.2-0.9-6.3-0.9-9.4c0-5.8,1-11.6,3-17.2
			c3.7-10.6,10-22.3,19-35.1c-6-9.4-9.9-19.1-11.6-29c-0.4-2.2-0.6-4.4-0.6-6.5c0-6,1.5-12.1,4.6-18.1c2.8-5.6,7.3-10,13.5-13.2
			c6.2-3.3,12-4.9,17.3-4.9c7.7,0,13.7,2.1,18,6.4c4.3,4.3,7,9.7,8.2,16.4c0.3,2,0.4,4,0.4,5.9c0,9.4-3.6,19.8-10.7,31.1
			c-3.7,5.8-9.8,14.5-18.3,26.2c3.5,3.9,7.2,7.8,11.2,11.7c5.6,5.7,11.2,11.8,16.8,18.3c5.1,5.9,10.4,13.7,16.1,23.5
			c7.2-10.1,11.2-22.6,11.7-37.6c0.1-5,1.2-7.4,3.4-7.4c2,0,3.3,1.5,3.9,4.6c0.4,2.6,0.6,6.1,0.6,10.6v2.8c-0.5,16.4-5.2,30-14,41
			c0.8,3.1,1.5,6.2,2.1,9.4c0.8,4.5,1.2,8.8,1.2,12.9c0,5.5-0.9,11.5-2.8,18.2c-1.9,6.7-5.6,13.4-11.2,20.1
			c-5.6,6.7-12.4,12.5-20.3,17.4C990.3,417.9,989.6,418.1,988.8,418.1z M957.1,249.9l4-5.4c6.5-8.4,12-16.4,16.5-23.9
			c3.6-6.1,5.4-11.8,5.4-17.1c0-1.2-0.1-2.3-0.3-3.4c-0.4-1.9-1.3-2.8-2.7-2.8c-3.8,0-7.1,0.8-9.9,2.5c-2.8,1.7-5.2,3.5-7,5.5
			c-1.8,2-3,3.5-3.5,4.6c-3.8,7.3-5.6,15-5.6,23c0,3,0.3,6,0.9,9.2C955.4,244.8,956.1,247.4,957.1,249.9z M986.4,341.7
			c6.6,0,12.5-1.5,17.7-4.5c-3.4-9.8-9-20.1-17-30.9c-3.3-4.7-10-13.5-20.2-26.5c-7.3,11.3-11,21.4-11,30.3c0,1.9,0.1,3.7,0.4,5.4
			c1.2,6.3,3.2,11.4,6.1,15.3c2.9,3.9,6.4,6.6,10.6,8.3C977.2,340.8,981.6,341.7,986.4,341.7z"/>
	</g>
</g>
</svg>
